# This file uses centimeters as units for non-parametric coordinates.

g default
v -19.336761 0.000000 13.000000
v -20.000000 0.000000 13.000000
v -19.336761 1.286653 13.000000
v -20.000000 1.629787 13.000000
v -19.336761 1.286653 20.000000
v -20.000000 1.629787 20.000000
v -19.336761 0.000000 20.000000
v -20.000000 0.000000 20.000000
v -12.000000 0.000000 12.000000
v -19.999998 0.000000 12.000000
v -12.000001 0.000000 20.000000
v -20.000000 0.000000 20.000000
v -12.000000 5.600000 12.000000
v -12.000001 5.600000 20.000000
v -19.999998 5.600000 12.000000
v -20.000000 5.600000 20.000000
v -12.000000 5.600000 12.000000
v -19.999998 5.600000 12.000000
v -19.000002 0.033401 12.000000
v -19.999998 0.033401 12.000000
v -19.000002 5.600000 12.000000
v -19.999998 5.600000 12.000000
v -19.000000 5.600000 13.000000
v -20.000000 5.600000 13.000000
v -19.000000 0.033401 13.000000
v -20.000000 0.033401 13.000000
v -13.000001 0.000000 12.663239
v -13.000000 0.000000 12.000000
v -13.000001 1.286653 12.663239
v -13.000000 1.629787 12.000000
v -19.000000 1.286653 12.663239
v -19.000002 1.629787 12.000000
v -19.000000 0.000000 12.663239
v -19.000002 0.000000 12.000000
v -12.000000 0.033401 12.000000
v -13.000000 0.033401 12.000000
v -12.000000 5.600000 12.000000
v -13.000000 5.600000 12.000000
v -12.000000 5.600000 12.999998
v -13.000000 5.600000 13.000002
v -12.000000 0.033401 12.999998
v -13.000000 0.033401 13.000002
vt 0.310289 0.229175
vt 0.310289 0.146436
vt 0.513605 0.146436
vt 0.470799 0.229175
vt -0.003105 0.539415
vt -0.003105 0.456675
vt 0.994899 0.456675
vt 0.994899 0.539415
vt 0.353096 0.316385
vt 0.310289 0.233646
vt 0.513606 0.233646
vt 0.513606 0.316385
vt -0.000525 0.247516
vt -0.000525 0.164777
vt 0.997479 0.164777
vt 0.997479 0.247516
vt 0.997479 0.160306
vt -0.000525 0.160306
vt -0.000525 -0.000205
vt 0.997479 -0.000205
vt 0.280510 0.019631
vt 0.534995 0.019631
vt 0.534995 0.274116
vt 0.280510 0.274116
vt 0.720084 0.274116
vt 0.720084 0.019631
vt 0.898224 0.019631
vt 0.898224 0.274116
vt 0.473859 0.371123
vt 0.473859 0.116637
vt 0.728345 0.116637
vt 0.728345 0.371123
vt 0.618851 0.090645
vt 0.922899 0.090645
vt 0.922899 0.394693
vt 0.618851 0.394693
vt 2.088328 0.465883
vt 2.088328 0.533872
vt -1.053698 0.533872
vt -1.053698 0.465883
vt 1.789209 0.055222
vt 1.964394 0.055222
vt 1.964394 0.230407
vt 1.789209 0.230407
vt 2.087531 0.465883
vt 2.087530 0.533872
vt -1.054495 0.533872
vt -1.054495 0.465883
vt 1.888778 0.232403
vt 2.063962 0.232403
vt 2.063962 0.407587
vt 1.888778 0.407587
vt 2.087457 0.465883
vt 2.087457 0.533872
vt -1.054569 0.533872
vt -1.054569 0.465883
vt 2.045611 0.466073
vt 2.045612 0.533916
vt -1.038440 0.533916
vt -1.038440 0.466073
vt 0.310289 0.229175
vt 0.310289 0.146436
vt 0.513605 0.146436
vt 0.470799 0.229175
vt -0.003105 0.539415
vt -0.003105 0.456675
vt 0.994899 0.456675
vt 0.994899 0.539415
vt 0.353096 0.316385
vt 0.310289 0.233646
vt 0.513606 0.233646
vt 0.513606 0.316385
vt -0.000525 0.247516
vt -0.000525 0.164777
vt 0.997479 0.164777
vt 0.997479 0.247516
vt 0.997479 0.160306
vt -0.000525 0.160306
vt -0.000525 -0.000205
vt 0.997479 -0.000205
vt 2.088328 0.465883
vt 2.088328 0.533872
vt -1.053698 0.533872
vt -1.053698 0.465883
vt 1.789209 0.055222
vt 1.964394 0.055222
vt 1.964394 0.230407
vt 1.789209 0.230407
vt 2.087531 0.465883
vt 2.087530 0.533872
vt -1.054495 0.533872
vt -1.054495 0.465883
vt 1.888778 0.232403
vt 2.063962 0.232403
vt 2.063962 0.407587
vt 1.888778 0.407587
vt 2.087457 0.465883
vt 2.087457 0.533872
vt -1.054569 0.533872
vt -1.054569 0.465883
vt 2.045611 0.466073
vt 2.045612 0.533916
vt -1.038440 0.533916
vt -1.038440 0.466073
vn 0.000000 0.000000 -1.000000
vn 0.000000 0.000000 -1.000000
vn 0.000000 0.000000 -1.000000
vn 0.000000 0.000000 -1.000000
vn 0.459507 0.888174 0.000000
vn 0.459507 0.888174 0.000000
vn 0.459507 0.888174 0.000000
vn 0.459507 0.888174 0.000000
vn 0.000002 0.000000 1.000000
vn 0.000002 0.000000 1.000000
vn 0.000002 0.000000 1.000000
vn 0.000002 0.000000 1.000000
vn 0.000000 -1.000000 0.000000
vn 0.000000 -1.000000 0.000000
vn 0.000000 -1.000000 0.000000
vn 0.000000 -1.000000 0.000000
vn 1.000000 0.000000 0.000000
vn 1.000000 0.000000 0.000000
vn 1.000000 0.000000 0.000000
vn 1.000000 0.000000 0.000000
vn 0.000000 1.000000 0.000000
vn 0.000000 1.000000 0.000000
vn 0.000000 1.000000 0.000000
vn 0.000000 1.000000 0.000000
vn 1.000000 0.000000 0.000000
vn 1.000000 0.000000 0.000000
vn 1.000000 0.000000 0.000000
vn 1.000000 0.000000 0.000000
vn 0.000000 -1.000000 0.000000
vn 0.000000 -1.000000 0.000000
vn 0.000000 -1.000000 0.000000
vn 0.000000 -1.000000 0.000000
vn 0.000000 0.000000 1.000000
vn 0.000000 0.000000 1.000000
vn 0.000000 0.000000 1.000000
vn 0.000000 0.000000 1.000000
vn 0.000000 0.000000 -1.000000
vn 0.000000 0.000000 -1.000000
vn 0.000000 0.000000 -1.000000
vn 0.000000 0.000000 -1.000000
vn 0.000000 1.000000 0.000000
vn 0.000000 1.000000 0.000000
vn 0.000000 1.000000 0.000000
vn 0.000000 1.000000 0.000000
vn 0.000000 0.000000 1.000000
vn 0.000000 0.000000 1.000000
vn 0.000000 0.000000 1.000000
vn 0.000000 0.000000 1.000000
vn 0.000000 -1.000000 0.000000
vn 0.000000 -1.000000 0.000000
vn 0.000000 -1.000000 0.000000
vn 0.000000 -1.000000 0.000000
vn -1.000000 0.000000 -0.000002
vn -1.000000 0.000000 -0.000002
vn -1.000000 0.000000 -0.000002
vn -1.000000 0.000000 -0.000002
vn 1.000000 0.000000 -0.000002
vn 1.000000 0.000000 -0.000002
vn 1.000000 0.000000 -0.000002
vn 1.000000 0.000000 -0.000002
vn 1.000000 0.000000 0.000001
vn 1.000000 0.000000 0.000001
vn 1.000000 0.000000 0.000001
vn 1.000000 0.000000 0.000001
vn 0.000000 0.888174 0.459507
vn 0.000000 0.888174 0.459507
vn 0.000000 0.888174 0.459507
vn 0.000000 0.888174 0.459507
vn -1.000000 0.000000 0.000003
vn -1.000000 0.000000 0.000003
vn -1.000000 0.000000 0.000003
vn -1.000000 0.000000 0.000003
vn 0.000000 -1.000000 0.000000
vn 0.000000 -1.000000 0.000000
vn 0.000000 -1.000000 0.000000
vn 0.000000 -1.000000 0.000000
vn 0.000000 0.000000 1.000000
vn 0.000000 0.000000 1.000000
vn 0.000000 0.000000 1.000000
vn 0.000000 0.000000 1.000000
vn 0.000000 0.000000 -1.000000
vn 0.000000 0.000000 -1.000000
vn 0.000000 0.000000 -1.000000
vn 0.000000 0.000000 -1.000000
vn 0.000000 1.000000 0.000000
vn 0.000000 1.000000 0.000000
vn 0.000000 1.000000 0.000000
vn 0.000000 1.000000 0.000000
vn 0.000004 0.000000 1.000000
vn 0.000004 0.000000 1.000000
vn 0.000004 0.000000 1.000000
vn 0.000004 0.000000 1.000000
vn 0.000000 -1.000000 0.000000
vn 0.000000 -1.000000 0.000000
vn 0.000000 -1.000000 0.000000
vn 0.000000 -1.000000 0.000000
vn -1.000000 0.000000 0.000000
vn -1.000000 0.000000 0.000000
vn -1.000000 0.000000 0.000000
vn -1.000000 0.000000 0.000000
vn 1.000000 0.000000 0.000000
vn 1.000000 0.000000 0.000000
vn 1.000000 0.000000 0.000000
vn 1.000000 0.000000 0.000000
s off
g Hallway_Corner_Right
f 1/1/1 2/2/2 4/3/3 3/4/4
f 3/5/5 4/6/6 6/7/7 5/8/8
f 5/9/9 6/10/10 8/11/11 7/12/12
f 7/13/13 8/14/14 2/15/15 1/16/16
f 7/17/17 1/18/18 3/19/19 5/20/20
f 9/21/21 10/22/22 12/23/23 11/24/24
f 12/25/25 10/26/26 15/27/27 16/28/28
f 13/29/29 14/30/30 16/31/31 15/32/32
f 10/33/33 9/34/34 17/35/35 18/36/36
f 19/37/37 20/38/38 22/39/39 21/40/40
f 21/41/41 22/42/42 24/43/43 23/44/44
f 23/45/45 24/46/46 26/47/47 25/48/48
f 25/49/49 26/50/50 20/51/51 19/52/52
f 20/53/53 26/54/54 24/55/55 22/56/56
f 25/57/57 19/58/58 21/59/59 23/60/60
f 27/61/61 28/62/62 30/63/63 29/64/64
f 29/65/65 30/66/66 32/67/67 31/68/68
f 31/69/69 32/70/70 34/71/71 33/72/72
f 33/73/73 34/74/74 28/75/75 27/76/76
f 33/77/77 27/78/78 29/79/79 31/80/80
f 35/81/81 36/82/82 38/83/83 37/84/84
f 37/85/85 38/86/86 40/87/87 39/88/88
f 39/89/89 40/90/90 42/91/91 41/92/92
f 41/93/93 42/94/94 36/95/95 35/96/96
f 36/97/97 42/98/98 40/99/99 38/100/100
f 41/101/101 35/102/102 37/103/103 39/104/104
