# This file uses centimeters as units for non-parametric coordinates.

g default
v -5.000000 5.600000 12.000000
v -4.000000 5.600000 12.000000
v -5.000000 0.000000 12.000000
v -4.000000 0.000000 12.000000
v -5.000000 5.600000 13.000000
v -5.000000 0.000000 13.000000
v -4.000000 0.000000 13.000000
v -4.000000 5.600000 13.000000
v -5.000000 5.000000 13.000000
v -4.000000 5.000000 13.000000
v -4.000000 5.000000 12.000000
v -5.000000 5.000000 12.000000
v -5.000000 4.040040 13.000000
v -4.000000 4.040040 13.000000
v -4.000000 4.040040 12.000000
v -5.000000 4.040040 12.000000
v -5.000000 5.000000 14.137877
v -5.000000 5.600000 14.137877
v -4.000000 5.600000 14.137877
v -4.000000 5.000000 14.137877
v -5.000000 5.000000 16.000000
v -5.000000 5.600000 16.000000
v -4.000000 5.600000 16.000000
v -4.000000 5.000000 16.000000
v -5.000000 5.600000 20.000000
v -4.000000 5.600000 20.000000
v -4.000000 5.000000 20.000000
v -5.000000 5.000000 20.000000
v -5.000000 5.000000 19.000000
v -5.000000 5.600000 19.000000
v -5.000000 0.000000 20.000000
v -4.000000 0.000000 20.000000
v -4.000000 0.000000 19.000000
v -5.000000 0.000000 19.000000
v -4.000000 5.600000 19.000000
v -4.000000 5.000000 19.000000
v -5.000000 5.000000 17.862123
v -5.000000 5.600000 17.862123
v -4.000000 5.600000 17.862123
v -4.000000 5.000000 17.862123
v -4.000000 4.040040 19.000000
v -4.000000 4.040040 20.000000
v -5.000000 4.040040 20.000000
v -5.000000 4.040040 19.000000
vt 1.974702 0.588830
vt 2.047947 0.588830
vt 2.047947 0.632777
vt 1.974702 0.632777
vt 2.047947 0.703089
vt 1.974702 0.703089
vt 2.047947 0.999002
vt 1.974702 0.999002
vt -0.018625 0.673576
vt 0.966812 0.478438
vt 0.075044 0.673576
vt 0.075044 0.575550
vt -0.018625 0.575550
vt 0.771105 0.665784
vt 1.243967 0.664310
vt 0.075044 0.575550
vt 0.075044 0.673576
vt -0.018625 0.673576
vt -0.018625 0.575550
vt 0.181628 0.673576
vt 1.126282 0.588830
vt 1.199527 0.588830
vt 1.199527 0.662075
vt 1.126282 0.662075
vt 0.181628 0.575550
vt 0.181628 0.575550
vt 0.181628 0.673576
vt 0.966812 0.478438
vt -1.306013 0.911285
vt -1.297797 0.912285
vt -1.297797 0.837979
vt 1.161099 0.836979
vt 1.161099 0.911285
vt 1.169316 0.912285
vt 1.941927 0.513713
vt 2.015172 0.513713
vt 2.015172 0.586958
vt 1.941927 0.586958
vt 1.941927 0.430369
vt 2.015172 0.430369
vt 1.941927 0.293978
vt 2.015172 0.293978
vt 1.169316 0.837979
vt 0.356052 0.673576
vt 0.356052 0.575550
vt 0.356052 0.575550
vt 0.356052 0.673576
vt 0.575452 0.599617
vt 0.737623 0.599617
vt 0.737623 0.657703
vt 0.575452 0.657703
vt 1.003015 0.599617
vt 1.003014 0.657703
vt -0.000337 0.599616
vt -0.000337 0.657703
vt -1.306013 0.836979
vt -0.018625 0.830411
vt -0.018625 0.830411
vt 0.734725 0.468429
vt 0.946335 0.468429
vt 1.243967 0.664310
vt 0.771105 0.665784
vt 0.946335 0.671566
vt 0.734725 0.671566
vt 0.734725 0.671566
vt 0.946335 0.671566
vt 0.946335 0.468429
vt 0.734725 0.468429
vt 1.974702 0.588830
vt 2.047947 0.588830
vt 2.047947 0.632777
vt 1.974702 0.632777
vt -0.018625 0.673576
vt 0.075044 0.673576
vt 0.075044 0.575550
vt -0.018625 0.575550
vt 1.126282 0.588830
vt 1.199527 0.588830
vt 1.199527 0.662075
vt 1.126282 0.662075
vt 0.075044 0.575550
vt 0.075044 0.673576
vt -0.018625 0.673576
vt -0.018625 0.575550
vt 1.941927 0.513713
vt 2.015172 0.513713
vt 2.015172 0.586958
vt 1.941927 0.586958
vt 0.181628 0.673576
vt 0.181628 0.575550
vt 0.181628 0.575550
vt 0.181628 0.673576
vt 1.941927 0.430369
vt 2.015172 0.430369
vt 0.734725 0.468429
vt 0.946335 0.468429
vt 0.946335 0.671566
vt 0.734725 0.671566
vt -0.018625 0.830411
vt -0.018625 0.830411
vt 0.734725 0.671566
vt 0.946335 0.671566
vt 0.946335 0.468429
vt 0.734725 0.468429
vt 0.575452 0.599617
vt 0.737623 0.599617
vt 0.737623 0.657703
vt 0.575452 0.657703
vt -0.000337 0.599616
vt -0.000337 0.657703
vt -1.306013 0.911285
vt -1.306013 0.836979
vt 1.161099 0.836979
vt 1.161099 0.911285
vt 1.974702 0.703089
vt 2.047947 0.703089
vt 2.047947 0.999002
vt 1.974702 0.999002
vt 1.169316 0.912285
vt 1.169316 0.837979
vt -1.297797 0.837979
vt -1.297797 0.912285
vt 0.356052 0.673576
vt 0.356052 0.575550
vt 1.941927 0.293978
vt 2.015172 0.293978
vt 0.356052 0.575550
vt 0.356052 0.673576
vt 1.003015 0.599617
vt 1.003014 0.657703
vt 0.966812 0.478438
vt 0.771105 0.665784
vt 1.243967 0.664310
vt 0.966812 0.478438
vt 1.243967 0.664310
vt 0.771105 0.665784
vn 0.000000 0.000000 -1.000000
vn 0.000000 0.000000 -1.000000
vn 0.000000 0.000000 -1.000000
vn 0.000000 0.000000 -1.000000
vn -1.000000 0.000000 0.000000
vn -1.000000 0.000000 0.000000
vn -1.000000 0.000000 0.000000
vn -1.000000 0.000000 0.000000
vn 0.000000 -1.000000 0.000000
vn 0.000000 -1.000000 0.000000
vn 0.000000 -1.000000 0.000000
vn 0.000000 -1.000000 0.000000
vn 1.000000 0.000000 0.000000
vn 1.000000 0.000000 0.000000
vn 1.000000 0.000000 0.000000
vn 1.000000 0.000000 0.000000
vn 0.000000 1.000000 0.000000
vn 0.000000 1.000000 0.000000
vn 0.000000 1.000000 0.000000
vn 0.000000 1.000000 0.000000
vn -1.000000 0.000000 0.000000
vn -1.000000 0.000000 0.000000
vn 1.000000 0.000000 0.000000
vn 1.000000 0.000000 0.000000
vn 0.000000 1.000000 0.000000
vn 0.000000 1.000000 0.000000
vn 1.000000 0.000000 0.000000
vn 1.000000 0.000000 0.000000
vn 0.000000 0.000000 -1.000000
vn 0.000000 0.000000 -1.000000
vn -1.000000 0.000000 0.000000
vn -1.000000 0.000000 0.000000
vn 0.000000 -0.764333 0.644822
vn 0.000000 -0.764333 0.644822
vn 0.000000 -0.764333 0.644822
vn 0.000000 -0.764333 0.644822
vn 0.000000 0.000000 1.000000
vn 0.000000 0.000000 1.000000
vn 0.000000 0.000000 1.000000
vn 0.000000 0.000000 1.000000
vn 1.000000 0.000000 0.000000
vn 1.000000 0.000000 0.000000
vn 0.000000 0.000000 -1.000000
vn 0.000000 0.000000 -1.000000
vn -1.000000 0.000000 0.000000
vn -1.000000 0.000000 0.000000
vn -1.000000 0.000000 0.000000
vn -1.000000 0.000000 0.000000
vn 0.000000 1.000000 0.000000
vn 0.000000 1.000000 0.000000
vn 1.000000 0.000000 0.000000
vn 1.000000 0.000000 0.000000
vn 0.000000 -1.000000 0.000000
vn 0.000000 -1.000000 0.000000
vn 0.000000 -1.000000 0.000000
vn 0.000000 -1.000000 0.000000
vn -1.000000 0.000000 0.000000
vn -1.000000 0.000000 0.000000
vn -1.000000 0.000000 0.000000
vn 1.000000 0.000000 0.000000
vn 1.000000 0.000000 0.000000
vn 1.000000 0.000000 0.000000
vn 0.000000 0.000000 1.000000
vn 0.000000 0.000000 1.000000
vn 0.000000 0.000000 1.000000
vn 0.000000 0.000000 1.000000
vn -1.000000 0.000000 0.000000
vn -1.000000 0.000000 0.000000
vn -1.000000 0.000000 0.000000
vn -1.000000 0.000000 0.000000
vn 0.000000 -1.000000 -0.000000
vn 0.000000 -1.000000 -0.000000
vn 0.000000 -1.000000 -0.000000
vn 0.000000 -1.000000 -0.000000
vn 1.000000 0.000000 0.000000
vn 1.000000 0.000000 0.000000
vn 1.000000 0.000000 0.000000
vn 1.000000 0.000000 0.000000
vn 0.000000 1.000000 0.000000
vn 0.000000 1.000000 0.000000
vn 0.000000 1.000000 0.000000
vn 0.000000 1.000000 0.000000
vn -1.000000 0.000000 0.000000
vn -1.000000 0.000000 0.000000
vn 1.000000 0.000000 0.000000
vn 1.000000 0.000000 0.000000
vn 0.000000 1.000000 0.000000
vn 0.000000 1.000000 0.000000
vn 1.000000 0.000000 0.000000
vn 1.000000 0.000000 0.000000
vn 0.000000 0.000000 1.000000
vn 0.000000 0.000000 1.000000
vn -1.000000 0.000000 0.000000
vn -1.000000 0.000000 0.000000
vn 0.000000 -0.764333 -0.644822
vn 0.000000 -0.764333 -0.644822
vn 0.000000 -0.764333 -0.644822
vn 0.000000 -0.764333 -0.644822
vn 0.000000 0.000000 -1.000000
vn 0.000000 0.000000 -1.000000
vn 0.000000 0.000000 -1.000000
vn 0.000000 0.000000 -1.000000
vn 1.000000 0.000000 0.000000
vn 1.000000 0.000000 0.000000
vn 0.000000 0.000000 1.000000
vn 0.000000 0.000000 1.000000
vn -1.000000 0.000000 0.000000
vn -1.000000 0.000000 0.000000
vn -1.000000 0.000000 0.000000
vn -1.000000 0.000000 0.000000
vn 0.000000 1.000000 0.000000
vn 0.000000 1.000000 0.000000
vn 1.000000 0.000000 0.000000
vn 1.000000 0.000000 0.000000
vn 0.000000 -1.000000 0.000000
vn 0.000000 -1.000000 0.000000
vn 0.000000 -1.000000 0.000000
vn 0.000000 -1.000000 0.000000
vn -1.000000 0.000000 0.000000
vn -1.000000 0.000000 0.000000
vn -1.000000 0.000000 0.000000
vn 1.000000 0.000000 0.000000
vn 1.000000 0.000000 0.000000
vn 1.000000 0.000000 0.000000
s 1
g Door
f 1/1/1 2/2/2 11/3/3 12/4/4
s 2
f 12/9/5 9/11/6 5/12/7 1/13/8
s off
f 3/21/9 4/22/10 7/23/11 6/24/12
s 3
f 8/16/13 10/17/14 11/18/15 2/19/16
s 4
f 5/35/17 8/36/18 2/37/19 1/38/20
s 2
f 9/11/6 17/20/21 18/25/22 5/12/7
s 3
f 19/26/23 20/27/24 10/17/14 8/16/13
s 4
f 18/39/25 19/40/26 8/36/18 5/35/17
s 3
f 11/59/15 10/60/14 14/63/27 15/64/28
s 1
f 12/9/4 11/18/3 15/57/29 16/58/30
s 2
f 16/65/31 13/66/32 9/67/6 12/68/5
s off
f 14/48/33 20/49/34 17/50/35 13/51/36
f 7/54/37 14/48/38 13/51/39 6/55/40
s 3
f 15/29/28 14/56/27 7/32/41 4/33/42
s 1
f 16/6/30 15/5/29 4/7/43 3/8/44
s 2
f 3/34/45 6/43/46 13/31/32 16/30/31
f 17/20/21 21/44/47 22/45/48 18/25/22
s 4
f 22/41/49 23/42/50 19/40/26 18/39/25
s 3
f 23/46/51 24/47/52 20/27/24 19/26/23
s off
f 17/50/53 20/49/54 24/52/55 21/53/56
f 9/10/57 13/14/58 17/15/59
f 10/28/60 20/61/61 14/62/62
s 5
f 25/69/63 28/72/64 27/71/65 26/70/66
s 6
f 28/73/67 25/76/68 30/75/69 29/74/70
s off
f 31/77/71 34/80/72 33/79/73 32/78/74
s 7
f 35/81/75 26/84/76 27/83/77 36/82/78
s 8
f 30/85/79 25/88/80 26/87/81 35/86/82
s 6
f 29/74/70 30/75/69 38/90/83 37/89/84
s 7
f 39/91/85 35/81/75 36/82/78 40/92/86
s 8
f 38/93/87 30/85/79 35/86/82 39/94/88
s 7
f 27/95/77 42/98/89 41/97/90 36/96/78
s 5
f 28/73/64 43/100/91 42/99/92 27/83/65
s 6
f 43/101/93 28/104/67 29/103/70 44/102/94
s off
f 41/105/95 44/108/96 37/107/97 40/106/98
f 33/109/99 34/110/100 44/108/101 41/105/102
s 7
f 42/111/89 32/114/103 33/113/104 41/112/90
s 5
f 43/115/91 31/118/105 32/117/106 42/116/92
s 6
f 31/119/107 43/122/93 44/121/94 34/120/108
f 37/89/84 38/90/83 22/124/109 21/123/110
s 8
f 22/125/111 38/93/87 39/94/88 23/126/112
s 7
f 23/127/113 39/91/85 40/92/86 24/128/114
s off
f 37/107/115 21/130/116 24/129/117 40/106/118
f 29/131/119 37/133/120 44/132/121
f 36/134/122 41/136/123 40/135/124
