# This file uses centimeters as units for non-parametric coordinates.

g default
v -12.000000 0.000000 35.000000
v -13.000000 0.000000 35.000000
v -12.000000 5.600000 35.000000
v -13.000000 5.600000 35.000000
v -12.000000 5.600000 36.000000
v -13.000000 5.600000 36.000000
v -12.000000 0.000000 36.000000
v -13.000000 0.000000 36.000000
v -12.000000 0.000000 28.000000
v -20.000000 0.000000 28.000000
v -12.000000 0.000000 36.000000
v -20.000000 0.000000 36.000000
v -12.000000 5.600000 28.000000
v -12.000000 5.600000 36.000000
v -20.000000 5.600000 28.000000
v -20.000000 5.600000 36.000000
v -19.000000 0.000000 35.000000
v -20.000000 0.000000 35.000000
v -19.000000 5.600000 35.000000
v -20.000000 5.600000 35.000000
v -19.000000 5.600000 36.000000
v -20.000000 5.600000 36.000000
v -19.000000 0.000000 36.000000
v -20.000000 0.000000 36.000000
v -12.663239 0.000000 35.000000
v -12.000000 0.000000 35.000000
v -12.663239 1.286653 35.000000
v -12.000000 1.629787 35.000000
v -12.663239 1.286653 27.999998
v -12.000000 1.629787 28.000000
v -12.663239 0.000000 27.999998
vt 2.088328 0.465883
vt 2.088328 0.533872
vt -1.053698 0.533872
vt -1.053698 0.465883
vt 1.789209 0.055222
vt 1.964394 0.055222
vt 1.964394 0.230407
vt 1.789209 0.230407
vt 2.087531 0.465883
vt 2.087530 0.533872
vt -1.054495 0.533872
vt -1.054495 0.465883
vt 1.888778 0.232403
vt 2.063962 0.232403
vt 2.063962 0.407587
vt 1.888778 0.407587
vt 2.087457 0.465883
vt 2.087457 0.533872
vt -1.054569 0.533872
vt -1.054569 0.465883
vt 2.045611 0.466073
vt 2.045612 0.533916
vt -1.038440 0.533916
vt -1.038440 0.466073
vt 0.280510 0.019631
vt 0.534995 0.019631
vt 0.534995 0.274116
vt 0.280510 0.274116
vt 0.473859 0.371123
vt 0.473859 0.116637
vt 0.728345 0.116637
vt 0.728345 0.371123
vt 0.669856 0.400575
vt 0.669856 0.028365
vt 0.930403 0.028365
vt 0.930403 0.400575
vt 2.088328 0.465883
vt 2.088328 0.533872
vt -1.053698 0.533872
vt -1.053698 0.465883
vt 1.789209 0.055222
vt 1.964394 0.055222
vt 1.964394 0.230407
vt 1.789209 0.230407
vt 2.087531 0.465883
vt 2.087530 0.533872
vt -1.054495 0.533872
vt -1.054495 0.465883
vt 1.888778 0.232403
vt 2.063962 0.232403
vt 2.063962 0.407587
vt 1.888778 0.407587
vt 2.087457 0.465883
vt 2.087457 0.533872
vt -1.054569 0.533872
vt -1.054569 0.465883
vt 2.045611 0.466073
vt 2.045612 0.533916
vt -1.038440 0.533916
vt -1.038440 0.466073
vt 0.310289 0.229175
vt 0.310289 0.146436
vt 0.513605 0.146436
vt 0.470799 0.229175
vt -0.003105 0.539415
vt -0.003105 0.456675
vt 0.994899 0.456675
vt 0.994899 0.539415
vt 0.997479 0.160306
vt -0.000525 0.160306
vt -0.000525 -0.000205
vt 0.997479 -0.000205
vn -0.000000 0.000000 -1.000000
vn -0.000000 0.000000 -1.000000
vn -0.000000 0.000000 -1.000000
vn -0.000000 0.000000 -1.000000
vn 0.000000 1.000000 0.000000
vn 0.000000 1.000000 0.000000
vn 0.000000 1.000000 0.000000
vn 0.000000 1.000000 0.000000
vn 0.000000 0.000000 1.000000
vn 0.000000 0.000000 1.000000
vn 0.000000 0.000000 1.000000
vn 0.000000 0.000000 1.000000
vn 0.000000 -1.000000 0.000000
vn 0.000000 -1.000000 0.000000
vn 0.000000 -1.000000 0.000000
vn 0.000000 -1.000000 0.000000
vn -1.000000 0.000000 0.000000
vn -1.000000 0.000000 0.000000
vn -1.000000 0.000000 0.000000
vn -1.000000 0.000000 0.000000
vn 1.000000 0.000000 0.000000
vn 1.000000 0.000000 0.000000
vn 1.000000 0.000000 0.000000
vn 1.000000 0.000000 0.000000
vn -0.000000 1.000000 -0.000000
vn -0.000000 1.000000 -0.000000
vn -0.000000 1.000000 -0.000000
vn -0.000000 1.000000 -0.000000
vn 0.000000 -1.000000 0.000000
vn 0.000000 -1.000000 0.000000
vn 0.000000 -1.000000 0.000000
vn 0.000000 -1.000000 0.000000
vn -1.000000 0.000000 0.000000
vn -1.000000 0.000000 0.000000
vn -1.000000 0.000000 0.000000
vn -1.000000 0.000000 0.000000
vn -0.000000 0.000000 -1.000000
vn -0.000000 0.000000 -1.000000
vn -0.000000 0.000000 -1.000000
vn -0.000000 0.000000 -1.000000
vn 0.000000 1.000000 0.000000
vn 0.000000 1.000000 0.000000
vn 0.000000 1.000000 0.000000
vn 0.000000 1.000000 0.000000
vn 0.000000 0.000000 1.000000
vn 0.000000 0.000000 1.000000
vn 0.000000 0.000000 1.000000
vn 0.000000 0.000000 1.000000
vn 0.000000 -1.000000 0.000000
vn 0.000000 -1.000000 0.000000
vn 0.000000 -1.000000 0.000000
vn 0.000000 -1.000000 0.000000
vn -1.000000 0.000000 0.000000
vn -1.000000 0.000000 0.000000
vn -1.000000 0.000000 0.000000
vn -1.000000 0.000000 0.000000
vn 1.000000 0.000000 0.000000
vn 1.000000 0.000000 0.000000
vn 1.000000 0.000000 0.000000
vn 1.000000 0.000000 0.000000
vn -0.000001 0.000000 1.000000
vn -0.000001 0.000000 1.000000
vn -0.000001 0.000000 1.000000
vn -0.000001 0.000000 1.000000
vn -0.459507 0.888174 0.000000
vn -0.459507 0.888174 0.000000
vn -0.459507 0.888174 0.000000
vn -0.459507 0.888174 0.000000
vn -1.000000 0.000000 0.000000
vn -1.000000 0.000000 0.000000
vn -1.000000 0.000000 0.000000
vn -1.000000 0.000000 0.000000
s off
g Hallway_T_Left
f 1/1/1 2/2/2 4/3/3 3/4/4
f 3/5/5 4/6/6 6/7/7 5/8/8
f 5/9/9 6/10/10 8/11/11 7/12/12
f 7/13/13 8/14/14 2/15/15 1/16/16
f 2/17/17 8/18/18 6/19/19 4/20/20
f 7/21/21 1/22/22 3/23/23 5/24/24
f 9/25/25 10/26/26 12/27/27 11/28/28
f 13/29/29 14/30/30 16/31/31 15/32/32
f 9/33/33 11/34/34 14/35/35 13/36/36
f 17/37/37 18/38/38 20/39/39 19/40/40
f 19/41/41 20/42/42 22/43/43 21/44/44
f 21/45/45 22/46/46 24/47/47 23/48/48
f 23/49/49 24/50/50 18/51/51 17/52/52
f 18/53/53 24/54/54 22/55/55 20/56/56
f 23/57/57 17/58/58 19/59/59 21/60/60
f 25/61/61 26/62/62 28/63/63 27/64/64
f 27/65/65 28/66/66 30/67/67 29/68/68
f 31/69/69 25/70/70 27/71/71 29/72/72
