# This file uses centimeters as units for non-parametric coordinates.

g default
v -4.000000 0.000000 20.000000
v 4.000000 0.000000 20.000000
v -4.000000 0.000000 12.000000
v 4.000000 0.000000 12.000000
v -4.000000 5.600000 20.000000
v -4.000000 5.600000 12.000000
v 4.000000 5.600000 20.000000
v 4.000000 5.600000 12.000000
v -4.000000 5.600000 20.000000
v 4.000000 5.600000 20.000000
v 3.336761 0.000000 19.000000
v 4.000000 0.000000 19.000000
v 3.336761 1.286653 19.000000
v 4.000000 1.629787 19.000000
v 3.336761 1.286653 12.000000
v 4.000000 1.629787 12.000000
v 3.336761 0.000000 12.000000
v 4.000000 0.000000 12.000000
v -4.000000 0.033401 20.000000
v -3.000000 0.033401 20.000000
v -4.000000 5.600000 20.000000
v -3.000000 5.600000 20.000000
v -4.000000 5.600000 19.000000
v -3.000000 5.600000 19.000000
v -4.000000 0.033401 19.000000
v -3.000000 0.033401 19.000000
v 3.000000 0.033401 20.000000
v 4.000000 0.033401 20.000000
v 3.000000 5.600000 20.000000
v 4.000000 5.600000 20.000000
v 3.000000 5.600000 19.000000
v 4.000000 5.600000 19.000000
v 3.000000 0.033401 19.000000
v 4.000000 0.033401 19.000000
v -3.000000 0.000000 19.336761
v -3.000000 0.000000 20.000000
v -3.000000 1.286653 19.336761
v -3.000000 1.629787 20.000000
v 3.000000 1.286653 19.336761
v 3.000000 1.629787 20.000000
v 3.000000 0.000000 19.336761
v 3.000000 0.000000 20.000000
vt 0.280510 0.019631
vt 0.534995 0.019631
vt 0.534995 0.274116
vt 0.280510 0.274116
vt 0.720084 0.274116
vt 0.720084 0.019631
vt 0.898224 0.019631
vt 0.898224 0.274116
vt 0.473859 0.371123
vt 0.473859 0.116637
vt 0.728345 0.116637
vt 0.728345 0.371123
vt 0.618851 0.090645
vt 0.922899 0.090645
vt 0.922899 0.394693
vt 0.618851 0.394693
vt 0.310289 0.229175
vt 0.310289 0.146436
vt 0.513605 0.146436
vt 0.470799 0.229175
vt -0.003105 0.539415
vt -0.003105 0.456675
vt 0.994899 0.456675
vt 0.994899 0.539415
vt 0.353096 0.316385
vt 0.310289 0.233646
vt 0.513606 0.233646
vt 0.513606 0.316385
vt 0.997479 0.160306
vt -0.000525 0.160306
vt -0.000525 -0.000205
vt 0.997479 -0.000205
vt 2.088328 0.465883
vt 2.088328 0.533872
vt -1.053698 0.533872
vt -1.053698 0.465883
vt 1.789209 0.055222
vt 1.964394 0.055222
vt 1.964394 0.230407
vt 1.789209 0.230407
vt 2.087531 0.465883
vt 2.087530 0.533872
vt -1.054495 0.533872
vt -1.054495 0.465883
vt 1.888778 0.232403
vt 2.063962 0.232403
vt 2.063962 0.407587
vt 1.888778 0.407587
vt 2.087457 0.465883
vt 2.087457 0.533872
vt -1.054569 0.533872
vt -1.054569 0.465883
vt 2.045611 0.466073
vt 2.045612 0.533916
vt -1.038440 0.533916
vt -1.038440 0.466073
vt 2.088328 0.465883
vt 2.088328 0.533872
vt -1.053698 0.533872
vt -1.053698 0.465883
vt 1.789209 0.055222
vt 1.964394 0.055222
vt 1.964394 0.230407
vt 1.789209 0.230407
vt 2.087531 0.465883
vt 2.087530 0.533872
vt -1.054495 0.533872
vt -1.054495 0.465883
vt 1.888778 0.232403
vt 2.063962 0.232403
vt 2.063962 0.407587
vt 1.888778 0.407587
vt 2.087457 0.465883
vt 2.087457 0.533872
vt -1.054569 0.533872
vt -1.054569 0.465883
vt 2.045611 0.466073
vt 2.045612 0.533916
vt -1.038440 0.533916
vt -1.038440 0.466073
vt 0.310289 0.229175
vt 0.310289 0.146436
vt 0.513605 0.146436
vt 0.470799 0.229175
vt -0.003105 0.539415
vt -0.003105 0.456675
vt 0.994899 0.456675
vt 0.994899 0.539415
vt 0.353096 0.316385
vt 0.310289 0.233646
vt 0.513606 0.233646
vt 0.513606 0.316385
vt 0.997479 0.160306
vt -0.000525 0.160306
vt -0.000525 -0.000205
vt 0.997479 -0.000205
vn 0.000000 1.000000 0.000000
vn 0.000000 1.000000 0.000000
vn 0.000000 1.000000 0.000000
vn 0.000000 1.000000 0.000000
vn -1.000000 0.000000 0.000000
vn -1.000000 0.000000 0.000000
vn -1.000000 0.000000 0.000000
vn -1.000000 0.000000 0.000000
vn 0.000000 -1.000000 0.000000
vn 0.000000 -1.000000 0.000000
vn 0.000000 -1.000000 0.000000
vn 0.000000 -1.000000 0.000000
vn 0.000000 0.000000 -1.000000
vn 0.000000 0.000000 -1.000000
vn 0.000000 0.000000 -1.000000
vn 0.000000 0.000000 -1.000000
vn 0.000000 0.000000 1.000000
vn 0.000000 0.000000 1.000000
vn 0.000000 0.000000 1.000000
vn 0.000000 0.000000 1.000000
vn -0.459506 0.888175 0.000000
vn -0.459506 0.888175 0.000000
vn -0.459506 0.888175 0.000000
vn -0.459506 0.888175 0.000000
vn 0.000000 0.000000 -1.000000
vn 0.000000 0.000000 -1.000000
vn 0.000000 0.000000 -1.000000
vn 0.000000 0.000000 -1.000000
vn -1.000000 0.000000 0.000000
vn -1.000000 0.000000 0.000000
vn -1.000000 0.000000 0.000000
vn -1.000000 0.000000 0.000000
vn 0.000000 0.000000 1.000000
vn 0.000000 0.000000 1.000000
vn 0.000000 0.000000 1.000000
vn 0.000000 0.000000 1.000000
vn 0.000000 1.000000 0.000000
vn 0.000000 1.000000 0.000000
vn 0.000000 1.000000 0.000000
vn 0.000000 1.000000 0.000000
vn 0.000000 0.000000 -1.000000
vn 0.000000 0.000000 -1.000000
vn 0.000000 0.000000 -1.000000
vn 0.000000 0.000000 -1.000000
vn 0.000000 -1.000000 0.000000
vn 0.000000 -1.000000 0.000000
vn 0.000000 -1.000000 0.000000
vn 0.000000 -1.000000 0.000000
vn 1.000000 0.000000 0.000000
vn 1.000000 0.000000 0.000000
vn 1.000000 0.000000 0.000000
vn 1.000000 0.000000 0.000000
vn -1.000000 0.000000 0.000000
vn -1.000000 0.000000 0.000000
vn -1.000000 0.000000 0.000000
vn -1.000000 0.000000 0.000000
vn 0.000000 0.000000 1.000000
vn 0.000000 0.000000 1.000000
vn 0.000000 0.000000 1.000000
vn 0.000000 0.000000 1.000000
vn 0.000000 1.000000 0.000000
vn 0.000000 1.000000 0.000000
vn 0.000000 1.000000 0.000000
vn 0.000000 1.000000 0.000000
vn 0.000000 0.000000 -1.000000
vn 0.000000 0.000000 -1.000000
vn 0.000000 0.000000 -1.000000
vn 0.000000 0.000000 -1.000000
vn 0.000000 -1.000000 0.000000
vn 0.000000 -1.000000 0.000000
vn 0.000000 -1.000000 0.000000
vn 0.000000 -1.000000 0.000000
vn 1.000000 0.000000 0.000000
vn 1.000000 0.000000 0.000000
vn 1.000000 0.000000 0.000000
vn 1.000000 0.000000 0.000000
vn -1.000000 0.000000 0.000000
vn -1.000000 0.000000 0.000000
vn -1.000000 0.000000 0.000000
vn -1.000000 0.000000 0.000000
vn -1.000000 0.000000 0.000000
vn -1.000000 0.000000 0.000000
vn -1.000000 0.000000 0.000000
vn -1.000000 0.000000 0.000000
vn 0.000000 0.888174 -0.459507
vn 0.000000 0.888174 -0.459507
vn 0.000000 0.888174 -0.459507
vn 0.000000 0.888174 -0.459507
vn 1.000000 0.000000 0.000000
vn 1.000000 0.000000 0.000000
vn 1.000000 0.000000 0.000000
vn 1.000000 0.000000 0.000000
vn 0.000000 0.000000 -1.000000
vn 0.000000 0.000000 -1.000000
vn 0.000000 0.000000 -1.000000
vn 0.000000 0.000000 -1.000000
s off
g Hallway_Corner1
f 1/1/1 2/2/2 4/3/3 3/4/4
f 4/5/5 2/6/6 7/7/7 8/8/8
f 5/9/9 6/10/10 8/11/11 7/12/12
f 2/13/13 1/14/14 9/15/15 10/16/16
f 11/17/17 12/18/18 14/19/19 13/20/20
f 13/21/21 14/22/22 16/23/23 15/24/24
f 15/25/25 16/26/26 18/27/27 17/28/28
f 17/29/29 11/30/30 13/31/31 15/32/32
f 19/33/33 20/34/34 22/35/35 21/36/36
f 21/37/37 22/38/38 24/39/39 23/40/40
f 23/41/41 24/42/42 26/43/43 25/44/44
f 25/45/45 26/46/46 20/47/47 19/48/48
f 20/49/49 26/50/50 24/51/51 22/52/52
f 25/53/53 19/54/54 21/55/55 23/56/56
f 27/57/57 28/58/58 30/59/59 29/60/60
f 29/61/61 30/62/62 32/63/63 31/64/64
f 31/65/65 32/66/66 34/67/67 33/68/68
f 33/69/69 34/70/70 28/71/71 27/72/72
f 28/73/73 34/74/74 32/75/75 30/76/76
f 33/77/77 27/78/78 29/79/79 31/80/80
f 35/81/81 36/82/82 38/83/83 37/84/84
f 37/85/85 38/86/86 40/87/87 39/88/88
f 39/89/89 40/90/90 42/91/91 41/92/92
f 41/93/93 35/94/94 37/95/95 39/96/96
